<svg width="25" height="18" viewBox="0 0 25 18" fill="none" xmlns="http://www.w3.org/2000/svg">
<path d="M7.18812 18C6.31277 18 5.47037 17.6684 4.83275 17.0726C4.19514 16.4768 3.81035 15.6619 3.75687 14.7939L3.75062 14.5853V13.0332C3.09603 13.0333 2.45281 12.8632 1.88492 12.5398C1.31703 12.2164 0.844252 11.751 0.513595 11.1898C0.182939 10.6286 0.00592173 9.9912 0.000146012 9.34098C-0.0056297 8.69076 0.160037 8.05036 0.480673 7.48346C0.80131 6.91656 1.26575 6.44292 1.8278 6.10961C2.38986 5.7763 3.02996 5.59495 3.68445 5.58358C4.33894 5.57222 4.98503 5.73123 5.55847 6.04482C6.13192 6.35841 6.61274 6.81564 6.95312 7.37106C7.61148 7.05866 8.32473 6.87647 9.05312 6.83465L9.37563 6.82471H14.3756L14.6856 6.8334L14.9919 6.85824L15.1506 6.87935L15.2881 6.67198L15.4519 6.45096L13.2306 4.24446C12.3556 3.37527 12.2644 2.02431 12.9556 1.0533L13.0844 0.88691L13.2306 0.727973C14.1556 -0.190884 15.6281 -0.240552 16.6119 0.582694L16.7706 0.727973L23.5356 7.44929C24.2208 8.12997 24.6921 8.99377 24.8922 9.93563C25.0923 10.8775 25.0126 11.8568 24.6627 12.7545C24.3129 13.6522 23.7079 14.4295 22.9215 14.992C22.1351 15.5544 21.2011 15.8778 20.2331 15.9226L19.9519 15.9276L19.7244 15.9189L19.6919 15.9984C19.451 16.525 19.0794 16.9822 18.6119 17.3271C18.1445 17.672 17.5965 17.8933 17.0194 17.9702L16.7794 17.9938L16.5619 18H7.18812ZM15.4444 2.04542C15.3338 1.93451 15.1853 1.86887 15.0283 1.8615C14.8713 1.85412 14.7172 1.90554 14.5965 2.00558C14.4759 2.10563 14.3974 2.24701 14.3766 2.40177C14.3559 2.55653 14.3943 2.71339 14.4844 2.84134L14.5569 2.92826L18.0669 6.41495L17.2694 7.21212C17.006 7.47454 16.7881 7.76261 16.6156 8.07635L16.4944 8.31475L16.1619 9.0399L15.3894 8.82509C15.1428 8.75655 14.8898 8.71328 14.6344 8.69595L14.3744 8.68726H9.37563C8.50062 8.68726 7.69687 8.98527 7.05937 9.48195L6.88063 9.63095L6.67438 9.82962L6.55812 9.95379L6.41937 10.1202L6.26812 10.3275L6.21562 10.407C6.16396 10.4857 6.11604 10.5668 6.07187 10.6504L5.99937 10.7895L5.92187 10.9596L5.87937 11.0639L5.81562 11.2402L5.74687 11.4687C5.7148 11.5902 5.68893 11.7133 5.66937 11.8374L5.65562 11.9405L5.63312 12.1752L5.62562 12.4124V14.5853C5.62562 15.3899 6.24062 16.0505 7.02813 16.13L7.18812 16.1375H12.5019V15.832C12.5021 15.4479 12.3589 15.0774 12.1001 14.7921C11.8413 14.5068 11.4852 14.327 11.1006 14.2873L10.9406 14.2799H9.69063C9.4514 14.2823 9.2203 14.1938 9.04465 14.0324C8.86899 13.8711 8.76206 13.6492 8.74577 13.4121C8.72947 13.175 8.80504 12.9407 8.95699 12.7571C9.10895 12.5736 9.32579 12.4547 9.56312 12.4248L9.69063 12.4173H10.9406C11.816 12.4173 12.6584 12.749 13.296 13.3447C13.9336 13.9405 14.3184 14.7555 14.3719 15.6234L14.3781 15.832L14.3769 16.1375H16.5631C17.3019 16.1375 17.9306 15.6234 18.0856 14.9268L18.1106 14.7753L18.2356 13.7323L19.2631 13.9781C19.9071 14.1339 20.5843 14.0822 21.1967 13.8305C21.8092 13.5788 22.3253 13.1403 22.6703 12.5781C23.0154 12.016 23.1716 11.3594 23.1164 10.7033C23.0612 10.0472 22.7974 9.42555 22.3631 8.92815L22.2106 8.76673L15.4444 2.04542ZM3.75062 7.4468C3.2711 7.4498 2.81096 7.63518 2.46481 7.96484C2.11866 8.2945 1.91282 8.74337 1.88961 9.21916C1.86639 9.69495 2.02758 10.1615 2.34001 10.5228C2.65245 10.8842 3.09239 11.1129 3.56937 11.162L3.75062 11.1694L3.89312 11.1632L3.89937 11.1322C3.94354 10.9467 3.99604 10.7655 4.05687 10.5883L4.17812 10.2717L4.31062 9.97863L4.38187 9.83832L4.54437 9.54776L4.65437 9.37392L4.83562 9.11316L4.92812 8.99148L5.06312 8.82509L5.22437 8.64256L5.41187 8.44761C5.14937 7.95093 4.67437 7.59084 4.11562 7.48157L3.92687 7.45425L3.75062 7.4468Z" fill="black"/>
</svg>
