<svg width="14" height="19" viewBox="0 0 14 19" fill="none" xmlns="http://www.w3.org/2000/svg">
<path fill-rule="evenodd" clip-rule="evenodd" d="M12 5C12 2.238 9.762 0 7 0C4.238 0 2 2.238 2 5V8H1.6C0.72 8 0 8.72 0 9.6V16.6C0 17.92 1.08 19 2.4 19H11.6C12.92 19 14 17.92 14 16.6V9.6C14 8.72 13.28 8 12.4 8H12V5ZM4 5V8H10V5C10 3.342 8.658 2 7 2C5.342 2 4 3.342 4 5ZM7 10.25C7.39766 10.2496 7.78361 10.3846 8.09427 10.6329C8.40493 10.8811 8.62178 11.2278 8.7091 11.6157C8.79643 12.0037 8.74902 12.4098 8.57469 12.7672C8.40035 13.1246 8.10949 13.412 7.75 13.582V16C7.75 16.1989 7.67098 16.3897 7.53033 16.5303C7.38968 16.671 7.19891 16.75 7 16.75C6.80109 16.75 6.61032 16.671 6.46967 16.5303C6.32902 16.3897 6.25 16.1989 6.25 16V13.582C5.89051 13.412 5.59965 13.1246 5.42531 12.7672C5.25098 12.4098 5.20357 12.0037 5.2909 11.6157C5.37822 11.2278 5.59507 10.8811 5.90573 10.6329C6.21639 10.3846 6.60234 10.2496 7 10.25Z" fill="black"/>
</svg>
