<svg width="25" height="25" viewBox="0 0 25 25" fill="none" xmlns="http://www.w3.org/2000/svg">
<path d="M0.22298 23.7048L3.89393 20.0387V5.93518L5.62764 2.7312C5.75553 2.48692 5.94741 2.2824 6.18255 2.13972C6.41769 1.99704 6.68715 1.92163 6.96184 1.92163C7.23653 1.92163 7.50599 1.99704 7.74114 2.13972C7.97628 2.2824 8.16816 2.48692 8.29605 2.7312L9.92423 5.94275V14.0095L23.711 0.224063C23.8164 0.117242 23.9511 0.0443906 24.0979 0.0147976C24.2447 -0.0147954 24.397 0.000210658 24.5353 0.0579026C24.6735 0.115594 24.7916 0.213358 24.8744 0.33873C24.9571 0.464101 25.0009 0.6114 25 0.761847V6.88198H23.3643V8.09389H25V12.9415H23.3643V14.1534H25V19.1904H23.3643V20.4023H25V24.2425C25 24.4434 24.9206 24.6361 24.7792 24.7781C24.6378 24.9202 24.4461 25 24.2462 25H0.758169C0.60845 25.0009 0.461861 24.9569 0.337093 24.8738C0.212328 24.7906 0.115036 24.672 0.057621 24.533C0.000207901 24.3941 -0.0147247 24.2411 0.0147247 24.0936C0.0441761 23.9461 0.116674 23.8107 0.22298 23.7048ZM18.9697 19.001V12.1386L12.1328 19.001H18.9697ZM5.4015 20.5993H8.41665V18.7587H5.4015V20.5993ZM5.4015 17.5695H8.41665V6.3139L6.9543 3.45834L5.4015 6.32147V17.5695Z" fill="black"/>
</svg>
