<svg width="24" height="24" viewBox="0 0 24 24" fill="none" xmlns="http://www.w3.org/2000/svg">
<path fill-rule="evenodd" clip-rule="evenodd" d="M15.0425 0C12.569 0 10.5637 1.97466 10.5637 4.41055C10.5637 6.76527 12.4375 8.68902 14.7967 8.8146L15.0425 8.82116C17.516 8.82116 19.5212 6.84649 19.5212 4.41055C19.5212 2.05589 17.6475 0.132081 15.2882 0.00649778L15.0425 0ZM24 22.683H12.7357C13.1935 21.904 13.5055 21.0503 13.6567 20.1627H21.4407V18.1464L21.434 17.9018C21.3107 15.6355 19.4837 13.8618 17.2819 13.8618H12.8031L12.5687 13.8685C12.3403 13.8817 12.1165 13.914 11.8988 13.9638C11.2518 13.2255 10.4664 12.6169 9.58553 12.1713C10.5411 11.6422 11.6374 11.3415 12.8031 11.3415H17.2819L17.5588 11.3472C21.1407 11.4943 24 14.4821 24 18.1464V22.683ZM16.9619 4.41055C16.9619 3.3666 16.1026 2.5203 15.0425 2.5203C13.9824 2.5203 13.123 3.3666 13.123 4.41055C13.123 5.4545 13.9824 6.3008 15.0425 6.3008C16.1026 6.3008 16.9619 5.4545 16.9619 4.41055ZM9.8458 24L6.08504 21.7379L2.32428 24L3.34676 19.7787L-1.90735e-06 16.9554L4.39268 16.6086L6.08504 12.6017L7.7774 16.6086L12.1701 16.9554L8.82333 19.7787L9.8458 24Z" fill="black"/>
</svg>
